<?xml version="1.0" encoding="UTF-8"?>
<svg width="140px" height="31px" viewBox="0 0 140 31" version="1.1" xmlns="http://www.w3.org/2000/svg" xmlns:xlink="http://www.w3.org/1999/xlink">
    <!-- Generator: Sketch 52.5 (67469) - http://www.bohemiancoding.com/sketch -->
    <title>Group 22</title>
    <desc>Created with Sketch.</desc>
    <defs>
        <polygon id="path-1" points="0 0.027304589 31.543634 0.027304589 31.543634 30.2874433 0 30.2874433"></polygon>
    </defs>
    <g id="Symbols" stroke="none" stroke-width="1" fill="none" fill-rule="evenodd">
        <g id="Menu--alt" transform="translate(-150.000000, -20.000000)">
            <g id="Menu">
                <g id="Group-22" transform="translate(150.000000, 20.000000)">
                    <g id="Group" transform="translate(37.333333, 4.666667)" fill="#051033">
                        <path d="M12.7507011,15.0341587 C13.0744279,14.7141214 13.2316958,14.2989999 13.2316958,13.7647936 C13.2316958,13.2291648 13.0729889,12.8078022 12.7468019,12.4765677 C12.4230287,12.1481325 12.0042356,11.988481 11.4667025,11.988481 L3.70765738,11.988481 L3.70765738,7.14271952 C3.70765738,6.33597216 3.99424889,5.6438123 4.55977277,5.08477953 C5.12525022,4.52574675 5.82538948,4.24237559 6.64106587,4.24237559 C7.45748497,4.24237559 8.15335367,4.52680222 8.70894385,5.0872117 C9.26239876,5.6466116 9.54267728,6.33803722 9.54267728,7.14271952 L9.54267728,7.36211992 C9.54267728,7.87471195 9.71052874,8.29015472 10.055794,8.63148502 C10.4007807,8.97286122 10.8206415,9.1387997 11.3394677,9.1387997 C11.8773722,9.1387997 12.2961653,8.97914816 12.6202635,8.65034584 C12.9461256,8.31947847 13.1048324,7.89774876 13.1048324,7.36211992 L13.1048324,7.14271952 C13.1044611,5.34506798 12.4774783,3.80880625 11.2411985,2.57684155 C10.0049651,1.34519808 8.45693457,0.720817852 6.64069452,0.720817852 C4.80254465,0.720817852 3.24360566,1.34028785 2.00769717,2.56215673 C0.754799293,3.80109672 0.14550221,5.29931558 0.14550221,7.14271952 L0.145827144,20.6699177 C0.145827144,21.204124 0.303141468,21.6191996 0.627193192,21.9392369 C0.950966401,22.2592742 1.37082714,22.4147957 1.91119187,22.4147957 C2.45299558,22.4147957 2.87921574,22.2582646 3.21426879,21.9357493 C3.54649027,21.615712 3.70798232,21.2016918 3.70798232,20.6699177 L3.70765738,15.5100387 L11.4667025,15.5100387 C12.0067423,15.5100387 12.426603,15.3541961 12.7507011,15.0341587" id="Fill-1"></path>
                        <path d="M15.6067011,20.6698948 C15.6067011,21.204101 15.7639691,21.6192225 16.0880672,21.9392599 C16.411794,22.2592972 16.8316547,22.4147727 17.3716481,22.4147727 C17.9134518,22.4147727 18.3400897,22.2582417 18.6751428,21.9357263 C19.0069929,21.6160561 19.168485,21.2016688 19.168485,20.6698948 L19.16816,2.52895527 C19.16816,1.32213833 18.6139624,0.783710187 17.3713696,0.783710187 C16.8316547,0.783710187 16.4114226,0.939552849 16.0873245,1.25959017 C15.7635977,1.5799946 15.6063298,1.99507025 15.6063298,2.52895527 L15.6067011,20.6698948 Z" id="Fill-3"></path>
                        <path d="M34.024611,21.9392461 C34.3487091,22.2592834 34.7685698,22.414759 35.3086096,22.414759 C35.850042,22.414759 36.2766335,22.2579067 36.6120115,21.9357584 C36.943908,21.6160424 37.1054001,21.2016551 37.1054001,20.669881 L37.1054001,14.8007711 C37.1054001,12.650592 36.3508576,10.8193949 34.8626149,9.35820928 C33.3739545,7.89638124 31.5160301,7.15530257 29.3399956,7.15530257 C27.1643324,7.15530257 25.3116998,7.89601412 23.8336693,9.3571997 C22.3556388,10.8183394 21.6064346,12.6498578 21.6064346,14.8007711 C21.6064346,16.9523268 22.3560102,18.7894438 23.8346905,20.2607711 C25.3123497,21.7317312 27.1647038,22.4776742 29.3403669,22.4776742 C29.8800354,22.4776742 30.3048165,22.3169213 30.639916,21.986054 C30.9745977,21.6551866 31.1371574,21.2348795 31.1371574,20.7013157 C31.1371574,20.1699087 30.9756189,19.7558886 30.6430725,19.435117 C30.3080659,19.1129687 29.8817993,18.9561165 29.3399956,18.9561165 C28.1857383,18.9561165 27.1908378,18.5452168 26.3836561,17.735349 C25.5774492,16.9275461 25.1685433,15.9401296 25.1685433,14.8007711 C25.1685433,13.6610454 25.5781454,12.678172 26.3857449,11.8798225 C27.193298,11.081473 28.1875022,10.6764932 29.3399956,10.6764932 C30.4914677,10.6764932 31.4898961,11.0807388 32.3084041,11.8780787 C33.1280261,12.6774836 33.5432913,13.6606783 33.5432913,14.8007711 L33.5432913,20.669881 C33.5436163,21.2041331 33.7008842,21.6192088 34.024611,21.9392461" id="Fill-5"></path>
                        <path d="M42.6075208,3.91186616 C42.2724677,3.58099879 41.8476401,3.42024589 41.3079717,3.42024589 C40.7700672,3.42024589 40.3512741,3.57994332 40.027176,3.90869975 C39.7013139,4.23961301 39.5429319,4.66097559 39.5429319,5.19660444 L39.5429319,15.9932519 C39.5433033,17.8118293 40.1699147,19.3530013 41.4054982,20.5738147 C42.6407104,21.7952706 44.1993245,22.4147865 46.038542,22.4147865 C47.8554783,22.4147865 49.4034624,21.7904063 50.6389996,20.5591299 C51.8752794,19.3267981 52.5022622,17.7908576 52.5022622,15.9932519 L52.5022622,15.7109363 C52.5022622,15.1983901 52.3397025,14.7885459 52.0050208,14.4573114 C51.6699677,14.1264441 51.2553988,13.9656912 50.7369439,13.9656912 C50.216725,13.9656912 49.7957502,14.1274537 49.4501136,14.460432 C49.1069836,14.7909781 48.9401534,15.2001339 48.9401534,15.7109363 L48.9401534,15.9932519 C48.9401534,16.7982555 48.6598749,17.4896811 48.1067913,18.0483926 C47.5512011,18.6091692 46.8556574,18.8932287 46.038542,18.8932287 C45.2221229,18.8932287 44.5219836,18.6098576 43.9572025,18.0511919 C43.3917714,17.4928475 43.1051335,16.8003205 43.1051335,15.9932519 L43.1051335,10.7393901 L50.7369439,10.7393901 C51.9576733,10.7393901 52.5019372,10.1915545 52.5019372,8.96307746 C52.5019372,8.42955956 52.344298,8.01411679 52.0205712,7.69371236 C51.696473,7.37367504 51.2766123,7.21783238 50.7369439,7.21783238 L43.1047622,7.21783238 L43.1047622,5.19660444 C43.1047622,4.66304065 42.9422025,4.24310066 42.6075208,3.91186616" id="Fill-7"></path>
                        <path d="M54.9719996,20.6698948 C54.9719996,21.204101 55.1293139,21.6192225 55.4533656,21.9392599 C55.7771388,22.2592972 56.1969996,22.4147727 56.7369929,22.4147727 C57.2784717,22.4147727 57.7050168,22.2578746 58.0404412,21.9357263 C58.3722913,21.615689 58.5338298,21.2016688 58.5338298,20.6698948 L58.5338298,15.5100158 L66.2928749,15.5100158 C66.8325433,15.5100158 67.2524041,15.354219 67.5764558,15.0341358 C67.9006004,14.7140985 68.0578218,14.2990228 68.0578218,13.7651378 C68.0578218,13.229509 67.8991614,12.8081464 67.5729744,12.4765907 C67.2488762,12.1481555 66.8300367,11.988458 66.2925035,11.988458 L58.5338298,11.988458 L58.5334584,7.14269657 C58.5334584,6.33668346 58.8200964,5.64415648 59.3855274,5.08480247 C59.9514226,4.5257238 60.6515155,4.24239854 61.4668669,4.24239854 C62.283286,4.24239854 62.9787834,4.52677927 63.5351163,5.08723464 C64.0885712,5.64695577 64.3688497,6.33838139 64.3688497,7.14269657 L64.3688497,7.36246409 C64.3688497,7.87505613 64.5367011,8.29013177 64.8816415,8.63146208 C65.2269531,8.97283828 65.6471852,9.13882264 66.1656401,9.13882264 C66.7035447,9.13882264 67.1223378,8.97912521 67.4457396,8.65069002 C67.7719266,8.31945552 67.9306335,7.89846006 67.9306335,7.36246409 L67.9306335,7.14269657 C67.9306335,5.34541215 67.3036508,3.80947166 66.0673709,2.57681861 C64.8311375,1.34522103 63.283107,0.720840797 61.4668669,0.720840797 C59.6283921,0.720840797 58.0694067,1.34031079 56.8338232,2.56213379 C55.5809253,3.80111967 54.9716282,5.29929264 54.9716282,7.14269657 L54.9719996,20.6698948 Z" id="Fill-9"></path>
                        <path d="M85.9315049,14.8007527 C85.9311335,12.6505737 85.1765911,10.8193765 83.6887197,9.35786969 C82.2000592,7.89636288 80.3417635,7.15528422 78.1661004,7.15528422 C75.9904372,7.15528422 74.1378046,7.89599576 72.6597741,9.35718134 C71.1817436,10.8183669 70.4324929,12.6498853 70.4324929,14.8007527 C70.4324929,16.9523084 71.1821149,18.7894254 72.6608417,20.2607527 C74.1385009,21.7317129 75.9908086,22.4776559 78.1664717,22.4776559 C78.7061401,22.4776559 79.1309677,22.3169489 79.4660208,21.9860815 C79.8007025,21.6555354 79.9632622,21.2352282 79.9632622,20.7013432 C79.9628908,20.1695691 79.8013523,19.7555031 79.4691773,19.4351445 C79.1337993,19.1129963 78.7075327,18.9560981 78.1661004,18.9560981 C77.0118431,18.9560981 76.0169425,18.5451985 75.2097144,17.7353306 C74.4035539,16.9275278 73.9946481,15.9401571 73.9946481,14.8007527 C73.9946481,13.6606599 74.4042966,12.6781995 75.2118033,11.8801713 C76.0190778,11.0817759 77.0128643,10.676842 78.1661004,10.676842 C79.3178974,10.676842 80.3163258,11.0810875 81.1345088,11.8784274 C81.9537595,12.6774653 82.3693961,13.6606599 82.3693961,14.8007527 L82.3693961,20.6699085 C82.3693961,21.2041148 82.5266176,21.6191904 82.8507157,21.9392277 C83.1748139,22.2593109 83.5946746,22.4147865 84.1347144,22.4147865 C84.6765181,22.4147865 85.1027383,22.2582555 85.4377913,21.9357401 C85.7700128,21.6157028 85.9315049,21.2016826 85.9315049,20.6699085 L85.9315049,14.8007527 Z" id="Fill-11"></path>
                        <path d="M91.7350712,1.10272416 C91.2823457,0.655846697 90.758924,0.438511346 90.1337051,0.438511346 C89.5081614,0.438511346 88.9847396,0.655846697 88.5327104,1.10272416 C88.0806813,1.54960161 87.8608404,2.06737922 87.8608404,2.68583964 C87.8608404,3.30425416 88.0806813,3.82207766 88.5327104,4.26895512 C88.9847396,4.71583258 89.5084863,4.93312204 90.1340765,4.93312204 C90.7596202,4.93312204 91.2834134,4.71583258 91.7354425,4.26895512 C92.1871004,3.82207766 92.4069412,3.30393293 92.4069412,2.68583964 C92.4069412,2.06774634 92.1871004,1.54996873 91.7350712,1.10272416" id="Fill-13"></path>
                        <path d="M90.1344293,22.4147727 C90.676233,22.4147727 91.1024531,22.2582417 91.4374598,21.9357722 C91.7697277,21.615689 91.9312197,21.2016688 91.9312197,20.6698948 L91.9308484,8.90014841 C91.9308484,7.69337736 91.3766972,7.15531634 90.1340579,7.15531634 C89.5940181,7.15531634 89.1741574,7.31079188 88.8500592,7.6308292 C88.5263324,7.95123364 88.3690645,8.36630928 88.3690645,8.90014841 L88.3690645,20.6698948 C88.3690645,21.2037798 88.5267038,21.6188554 88.8504306,21.9392599 C89.1745287,22.2592972 89.5943895,22.4147727 90.1344293,22.4147727" id="Fill-15"></path>
                        <path d="M100.895815,7.15529339 C99.0774399,7.15529339 97.5237462,7.77513051 96.2776256,8.99732063 C95.0321547,10.2191436 94.4005765,11.7491184 94.4005765,13.5453932 L94.4005765,20.6699177 C94.4005765,21.2037568 94.5582157,21.6188325 94.8819425,21.9392369 C95.2060407,22.2592742 95.6259014,22.4147498 96.1658948,22.4147498 C96.7076985,22.4147498 97.1339651,22.2582646 97.4690181,21.9357493 C97.8012396,21.615712 97.9627317,21.2016918 97.9627317,20.6699177 L97.9627317,13.5453932 C97.9627317,12.7358466 98.24055,12.0629147 98.7886667,11.5447241 C99.3241574,11.0391532 100.000948,10.7477513 100.800702,10.6782278 C102.070218,10.5688718 102.661134,10.0039192 102.661134,8.90017136 C102.661134,8.38794644 102.498574,7.97778104 102.163567,7.64617943 C101.829164,7.3160004 101.41427,7.15529339 100.895815,7.15529339" id="Fill-17"></path>
                    </g>
                    <g id="Group-21" transform="translate(0.000000, 0.018585)">
                        <mask id="mask-2" fill="white">
                            <use xlink:href="#path-1"></use>
                        </mask>
                        <g id="Clip-20"></g>
                        <path d="M21.749622,30.2874479 C21.3322679,30.2874479 20.9140782,30.1854801 20.5344164,29.9803056 C19.7213859,29.5408624 19.2162533,28.6988256 19.2162533,27.7827222 L19.2160212,16.9317408 C19.2160212,16.9171478 19.2103117,16.9033808 19.199821,16.8931014 L10.7604576,8.54675396 L2.6466313,13.778405 C2.53137268,13.8526551 2.46257958,13.9782103 2.46257958,14.1141826 L2.46281167,24.0489229 C2.46281167,24.3290359 2.64222149,24.4668896 2.74917109,24.5241604 C2.85607427,24.5813853 3.07080902,24.6545341 3.30819629,24.5014907 L9.67791777,20.3922189 C9.68780504,20.3858402 9.69374668,20.3750101 9.69374668,20.3632623 L9.69360743,12.8384847 C9.69356101,12.1661952 10.2448342,11.6212048 10.924874,11.6212048 C11.6049138,11.6212048 12.156187,12.1661952 12.156187,12.8384847 L12.1563727,20.3632623 C12.1563727,21.2004347 11.7330305,21.9734529 11.0238395,22.4310686 L4.65397878,26.5404322 C3.72805703,27.1376914 2.54882626,27.1855548 1.57653183,26.6649779 C0.60428382,26.1444468 0.000232095491,25.1420701 0.000232095491,24.0489229 L0,14.1141826 C-4.64190981e-05,13.1524186 0.486472149,12.2645835 1.30126658,11.7391881 L9.43700265,6.49344887 C10.3943501,5.87618159 11.6756565,6.00820731 12.4836273,6.8073828 L20.9414191,15.1719027 C21.4167507,15.6420006 21.6786008,16.2670232 21.6786008,16.9317408 L21.6788329,27.7827222 C21.6788329,27.8021337 21.6788329,27.8242068 21.7156897,27.8440772 C21.7525,27.8639935 21.7712533,27.852108 21.7878249,27.841645 L28.9655637,23.2914615 C29.037931,23.2455714 29.0810544,23.1675583 29.0810544,23.0825699 L29.0808223,10.592992 C29.0808223,10.54958 29.0623939,10.5076823 29.0302719,10.4780374 L20.4606565,2.56622295 C20.3304509,2.44603686 20.1355836,2.42974589 19.9868103,2.52652804 L15.279496,5.58982758 C14.7115584,5.95947206 13.9479178,5.80385885 13.5740584,5.24230212 C13.2001525,4.68074539 13.3575133,3.92585381 13.9254973,3.55620933 L18.6328117,0.492955673 C19.734569,-0.223984821 21.1772745,-0.103110388 22.1413992,0.786881543 L30.711061,8.69878775 C31.2400066,9.18719571 31.5433554,9.87756586 31.5433554,10.592992 L31.543634,23.0825699 C31.5436804,24.0010137 31.0768435,24.8452532 30.294821,25.3409118 L23.1171286,29.8910495 C22.7013992,30.154642 22.2260676,30.2874479 21.749622,30.2874479" id="Fill-19" fill="#6785FF" mask="url(#mask-2)"></path>
                    </g>
                </g>
            </g>
        </g>
    </g>
</svg>